<?xml version="1.0" encoding="utf-8"?>
<!-- Generator: Adobe Illustrator 16.0.0, SVG Export Plug-In . SVG Version: 6.00 Build 0)  -->
<!DOCTYPE svg PUBLIC "-//W3C//DTD SVG 1.1//EN" "http://www.w3.org/Graphics/SVG/1.1/DTD/svg11.dtd">
<svg version="1.1" id="Calque_1" xmlns="http://www.w3.org/2000/svg" xmlns:xlink="http://www.w3.org/1999/xlink" x="0px" y="0px"
	 width="30px" height="30px" viewBox="0 0 30 30" enable-background="new 0 0 30 30" xml:space="preserve">
<path fill="#58101B" d="M11.564,16c0,1.914,1.554,3.468,3.468,3.468c1.913,0,3.468-1.554,3.468-3.468v-0.029
	c-0.37,0.375-0.878,0.607-1.445,0.607c-1.115,0-2.022-0.907-2.022-2.023c0-0.803,0.474-1.503,1.149-1.827
	c-0.357-0.127-0.745-0.196-1.149-0.196C13.119,12.532,11.564,14.087,11.564,16z M28.129,14.029
	c-2.15-2.733-7.387-7.276-13.091-7.276c-5.71,0-10.952,4.543-13.102,7.276C1.45,14.653,1.185,15.33,1.167,16
	c0.018,0.671,0.283,1.347,0.769,1.971c2.15,2.734,7.387,7.276,13.097,7.276s10.946-4.542,13.097-7.276
	c0.49-0.624,0.757-1.3,0.774-1.971C28.886,15.33,28.619,14.653,28.129,14.029z M15.032,21.779c-3.19,0-5.78-2.589-5.78-5.779
	s2.59-5.78,5.78-5.78c3.189,0,5.779,2.589,5.779,5.78S18.222,21.779,15.032,21.779z"/>
</svg>
