<?xml version="1.0" encoding="utf-8"?>
<!-- Generator: Adobe Illustrator 16.0.0, SVG Export Plug-In . SVG Version: 6.00 Build 0)  -->
<!DOCTYPE svg PUBLIC "-//W3C//DTD SVG 1.1//EN" "http://www.w3.org/Graphics/SVG/1.1/DTD/svg11.dtd">
<svg version="1.1" id="Ebene_1" xmlns="http://www.w3.org/2000/svg" xmlns:xlink="http://www.w3.org/1999/xlink" x="0px" y="0px"
	 width="283.46px" height="283.46px" viewBox="0 0 283.46 283.46" enable-background="new 0 0 283.46 283.46" xml:space="preserve">
<path fill="#D3D3D3" d="M87.084,180.392c0,0-2.729,17.817-26.289,16.705c2.884,23.987,78.041,7.46,78.041,7.46l-1.949,56.341
	l10.343,0.957l-0.811-57.886c0,0,45.532,15.844,78.188-5.758c-27.754-2.255-26.664-20.382-26.664-20.382s38.099,3.214,46.57-16.222
	c-25.689-5.933-10.375-20.324-6.562-26.047c-10.941-5.825,1.685-40.765,1.685-40.765s-16.047,32.417-23.358,14.717
	c-7.688,42.848-17.585,17.351-17.585,17.351s-21.681,31.678-28.911,19.768c-10.123-5.669,34.754-48.533,30.596-72.933
	c-47.66,46.747-45.847,13.305-29.051-27.459c-26.76,34.273-15.394-6.511-14.821-8.609c-16.614,4.294-15.311-15.832-15.311-15.832
	s0.225,22.794-16.034,14.589c14.527,47.437-15.051,11.215-15.051,11.215s38.37,82.56-27.809,26.432
	c1.69,14.248,9.102,32.305,9.102,32.305s53.651,79.034-6.834,19.749c-8.446,26.402-16.405-10.099-17.058-13.791
	c0,0-5.703,18.266-26.453-22.379c16.605,38.329,4.684,48.273,4.684,48.273s31.604,28.292-8.031,25.124
	C56.534,184.741,87.084,180.392,87.084,180.392z"/>
</svg>
