<?xml version="1.0" encoding="utf-8"?>
<!-- Generator: Adobe Illustrator 16.0.0, SVG Export Plug-In . SVG Version: 6.00 Build 0)  -->
<!DOCTYPE svg PUBLIC "-//W3C//DTD SVG 1.1//EN" "http://www.w3.org/Graphics/SVG/1.1/DTD/svg11.dtd">
<svg version="1.1" id="Ebene_1" xmlns="http://www.w3.org/2000/svg" xmlns:xlink="http://www.w3.org/1999/xlink" x="0px" y="0px"
	 width="283.46px" height="283.46px" viewBox="0 0 283.46 283.46" enable-background="new 0 0 283.46 283.46" xml:space="preserve">
<path fill="#D3D3D3" d="M267.968,139.131l-41.82-35.076l6.743-52.614l-55.985,6.746l-35.75-44.52L106.753,58.86l-55.986-7.419
	l8.094,53.963l-42.496,37.1l44.52,34.401l-10.118,55.313l56.661-6.746l33.728,45.195l35.75-45.195l56.661,6.746l-6.747-55.989
	L267.968,139.131z M143.176,222.101c-44.29,0-80.194-36.09-80.194-80.608s35.904-80.608,80.194-80.608
	c44.29,0,80.197,36.09,80.197,80.608S187.466,222.101,143.176,222.101z"/>
<ellipse fill="#D3D3D3" cx="141.156" cy="141.155" rx="64.757" ry="64.081"/>
</svg>
