<?xml version="1.0" encoding="utf-8"?>
<!-- Generator: Adobe Illustrator 16.0.0, SVG Export Plug-In . SVG Version: 6.00 Build 0)  -->
<!DOCTYPE svg PUBLIC "-//W3C//DTD SVG 1.1//EN" "http://www.w3.org/Graphics/SVG/1.1/DTD/svg11.dtd">
<svg version="1.1" id="Ebene_1" xmlns="http://www.w3.org/2000/svg" xmlns:xlink="http://www.w3.org/1999/xlink" x="0px" y="0px"
	 width="283.46px" height="283.46px" viewBox="0 0 283.46 283.46" enable-background="new 0 0 283.46 283.46" xml:space="preserve">
<path fill="#D3D3D3" stroke="#D3D3D3" stroke-width="3" stroke-miterlimit="10" d="M256.49,199l-69.328-40.018l29.75-7.972
	c1.974-0.526,3.141-2.562,2.604-4.53c-0.516-1.964-2.516-3.146-4.508-2.604l-36.893,9.861l-27.391-15.799l27.412-15.822
	l36.871,9.871c0.316,0.082,0.635,0.12,0.956,0.12c1.633,0,3.124-1.084,3.554-2.739c0.537-1.98-0.629-4.014-2.603-4.53l-29.729-7.973
	l69.307-40.011c1.767-1.003,2.375-3.27,1.355-5.044c-1.015-1.764-3.276-2.376-5.044-1.357l-69.328,40.028l7.979-29.75
	c0.525-1.969-0.652-4.003-2.621-4.501c-1.953-0.532-3.992,0.623-4.523,2.604l-9.894,36.882l-27.392,15.822V99.904l27-27
	c1.432-1.437,1.432-3.781,0-5.218c-1.454-1.437-3.786-1.437-5.229,0l-21.771,21.761V9.391c0-2.034-1.654-3.688-3.699-3.688
	c-2.041,0-3.689,1.654-3.689,3.688v80.057l-21.771-21.761c-1.443-1.437-3.787-1.437-5.224,0c-1.448,1.438-1.448,3.781,0,5.218
	l26.994,27v31.632l-27.401-15.822l-9.893-36.882c-0.521-1.98-2.549-3.136-4.518-2.604c-1.969,0.499-3.141,2.549-2.621,4.501
	l7.984,29.75L33.855,70.454c-1.773-1.019-4.029-0.407-5.05,1.356c-1.009,1.773-0.407,4.041,1.357,5.044l69.317,40.012l-29.729,7.972
	c-1.974,0.515-3.14,2.549-2.614,4.53c0.438,1.653,1.932,2.74,3.553,2.74c0.319,0,0.64-0.038,0.965-0.12l36.867-9.871l27.412,15.822
	l-27.396,15.8l-36.882-9.861c-1.952-0.543-3.998,0.641-4.518,2.604c-0.538,1.98,0.64,4.003,2.614,4.529l29.739,7.973l-69.328,40.018
	c-1.764,1.042-2.365,3.28-1.357,5.056c0.694,1.183,1.937,1.844,3.221,1.844c0.612,0,1.253-0.163,1.844-0.488l69.317-40.028
	l-7.967,29.722c-0.521,1.969,0.651,4.004,2.62,4.519c0.319,0.092,0.641,0.137,0.96,0.137c1.627,0,3.129-1.085,3.562-2.756
	l9.861-36.854l27.412-15.812v31.62l-26.994,27c-1.448,1.437-1.448,3.782,0,5.218c1.437,1.454,3.781,1.454,5.224,0l21.771-21.778
	v80.073c0,2.046,1.649,3.699,3.689,3.699c2.044,0,3.698-1.653,3.698-3.699v-80.073l21.771,21.778
	c0.717,0.731,1.66,1.085,2.609,1.085s1.882-0.354,2.62-1.085c1.432-1.436,1.432-3.781,0-5.218l-26.992-27.001v-31.621l27.401,15.812
	l9.86,36.855c0.434,1.653,1.942,2.754,3.563,2.754c0.32,0,0.635-0.042,0.971-0.136c1.964-0.515,3.13-2.565,2.604-4.518
	l-7.951-29.724l69.317,40.028c0.575,0.326,1.21,0.488,1.844,0.488c1.28,0,2.512-0.661,3.21-1.843
	C258.876,202.281,258.269,200.041,256.49,199z"/>
</svg>
