<?xml version="1.0" encoding="utf-8"?>
<!-- Generator: Adobe Illustrator 16.0.0, SVG Export Plug-In . SVG Version: 6.00 Build 0)  -->
<!DOCTYPE svg PUBLIC "-//W3C//DTD SVG 1.1//EN" "http://www.w3.org/Graphics/SVG/1.1/DTD/svg11.dtd">
<svg version="1.1" id="Calque_1" xmlns="http://www.w3.org/2000/svg" xmlns:xlink="http://www.w3.org/1999/xlink" x="0px" y="0px"
	 width="50px" height="50px" viewBox="0 0 50 50" enable-background="new 0 0 50 50" xml:space="preserve">
<g>
	<path fill-rule="evenodd" clip-rule="evenodd" fill="#590817" d="M47.152,15.116c-4.673-4.649-9.326-9.316-13.991-13.97
		c-0.446-0.444-0.769-1.205-1.618-0.33C27.628,4.853,23.66,8.837,19.71,12.841c5.804,6.031,11.704,11.966,17.762,17.745
		c0.516-0.468,1.049-0.922,1.546-1.409c3.193-3.126,6.378-6.261,9.563-9.393c0-1.151,0-2.304,0-3.455
		C47.921,16.146,47.594,15.554,47.152,15.116z M44.986,18.755c-1.764,1.663-3.473,3.382-5.219,5.062
		c-0.514,0.491-1.129,0.865-1.84,0.955c-1.075,0.134-1.784-0.209-1.541-1.483c0.049-0.249,0.157-0.487,0.208-0.736
		c0.66-3.235,0.273-3.602-3.007-2.873c-1.694,0.376-2.349-0.052-2.298-1.702c0.134-1.097,0.871-2.178,1.29-3.374
		c0.233-0.663,0.62-1.44,0.064-1.972c-0.645-0.617-1.428-0.131-2.109,0.218c-1.075,0.553-2.144,1.124-3.226,1.66
		c-0.798,0.395-1.636,0.522-2.262-0.262c-0.535-0.671-0.452-1.503,0.024-2.146c1.942-2.631,4.491-4.69,6.732-7.045
		c0.495-0.52,0.787,0.01,1.075,0.297c4.021,4.012,8.029,8.039,12.062,12.038C45.451,17.898,45.558,18.216,44.986,18.755z"/>
	<path fill-rule="evenodd" clip-rule="evenodd" fill="#590817" d="M4.432,48.962c0.896,0,1.792,0,2.688,0
		c0.064-0.093,0.091-0.193,0.083-0.307c-0.949-0.003-1.897-0.007-2.847-0.01C4.36,48.757,4.385,48.863,4.432,48.962z"/>
	<path fill-rule="evenodd" clip-rule="evenodd" fill="#590817" d="M14.79,20.55c-0.145,0.162-0.289,0.324-0.434,0.486
		c0.478,1.78,0.973,3.557,1.428,5.342c0.52,2.028-0.114,3.593-1.859,4.788c-1.592,1.089-3.316,1.906-5.078,2.64
		c-4.471,1.862-6.526,5.521-7.386,9.988c-0.48,2.506,0.592,4.089,2.894,4.852c0.951-0.816,1.901-0.825,2.847,0.01
		c4.009-0.854,7.154-2.919,9.135-6.575c1.03-1.904,1.996-3.84,3.008-5.752c0.843-1.595,2.175-2.162,3.961-2.052
		c2.279,0.143,4.275,1.208,6.431,1.744c0.024-0.399-0.059-0.766-0.353-1.055C24.507,30.174,19.847,25.16,14.79,20.55z M6.96,45.757
		c-1.447-0.122-2.423-0.984-2.412-2.457c0.011-1.438,0.894-2.316,2.425-2.464c1.433,0.119,2.353,0.835,2.458,2.354
		C9.526,44.564,8.306,45.873,6.96,45.757z"/>
	<path fill-rule="evenodd" clip-rule="evenodd" fill="#590817" d="M35.276,29.19c-4.726-4.711-9.443-9.43-14.156-14.155
		c-0.624-0.626-1.322-1.217-1.41-2.194c-2.112,1.957-4.31,3.83-6.025,6.174c0.614,0.259,0.764,0.85,1.021,1.364
		c0.865-0.056,1.339,0.589,1.857,1.104c4.118,4.093,8.231,8.188,12.306,12.325c0.561,0.57,1.571,1.089,0.868,2.211
		c0.745,0.406,1.428,1.099,2.315,0.156c1.779-1.89,3.609-3.73,5.42-5.591C36.481,30.529,35.902,29.812,35.276,29.19z M31.56,33.812
		c-0.782,0.492-1.295-0.753-1.832-1.287c-4.179-4.118-8.28-8.315-12.484-12.409c-0.98-0.954-0.924-1.461,0.026-2.371
		c2.395-2.289,2.349-2.337,4.751,0.068c3.923,3.926,7.845,7.85,11.763,11.778c0.348,0.349,0.658,0.736,0.999,1.121
		C33.68,31.816,32.769,33.053,31.56,33.812z"/>
	<path fill-rule="evenodd" clip-rule="evenodd" fill="#590817" d="M14.611,20.404c-0.448-0.362-0.569-0.961-0.926-1.389
		c-0.062,0.768,0.262,1.408,0.671,2.02C14.193,20.71,14.347,20.532,14.611,20.404z"/>
	<path fill-rule="evenodd" clip-rule="evenodd" fill="#590817" d="M14.611,20.404c0.06,0.048,0.105,0.107,0.179,0.146
		c-0.032-0.054-0.056-0.114-0.084-0.17c-0.017,0.001-0.032-0.002-0.05,0C14.639,20.387,14.627,20.396,14.611,20.404z"/>
</g>
</svg>
