<?xml version="1.0" encoding="utf-8"?>
<!-- Generator: Adobe Illustrator 16.0.0, SVG Export Plug-In . SVG Version: 6.00 Build 0)  -->
<!DOCTYPE svg PUBLIC "-//W3C//DTD SVG 1.1//EN" "http://www.w3.org/Graphics/SVG/1.1/DTD/svg11.dtd">
<svg version="1.1" id="Layer_1" xmlns="http://www.w3.org/2000/svg" xmlns:xlink="http://www.w3.org/1999/xlink" x="0px" y="0px"
	 width="300px" height="300px" viewBox="0 0 300 300" enable-background="new 0 0 300 300" xml:space="preserve">
<g>
	<path fill="#590817" d="M150.52,15.398c-74.562,0-135,60.442-135,135.001c0,74.555,60.439,135.003,135,135.003
		c74.558,0,135.002-60.448,135.002-135.003C285.521,75.84,225.076,15.398,150.52,15.398z M150.52,266.312
		c-64.018,0-115.913-51.897-115.913-115.914S86.502,34.49,150.52,34.49c64.014,0,115.91,51.894,115.91,115.909
		S214.532,266.312,150.52,266.312z"/>
	<path fill="#590817" d="M150.52,45.969c-57.678,0-104.431,46.756-104.431,104.432c0,57.672,46.753,104.424,104.431,104.424
		c57.672,0,104.428-46.752,104.428-104.424C254.947,92.725,208.191,45.969,150.52,45.969z M196.328,220.879l-45.805-24.083
		l-45.803,24.075l8.745-50.999l-37.06-36.113l51.218-7.442l22.896-46.399l22.904,46.399l51.207,7.442l-37.058,36.113
		L196.328,220.879z"/>
</g>
</svg>
