<?xml version="1.0" encoding="utf-8"?>
<!-- Generator: Adobe Illustrator 16.0.0, SVG Export Plug-In . SVG Version: 6.00 Build 0)  -->
<!DOCTYPE svg PUBLIC "-//W3C//DTD SVG 1.1//EN" "http://www.w3.org/Graphics/SVG/1.1/DTD/svg11.dtd">
<svg version="1.1" id="Layer_1" xmlns="http://www.w3.org/2000/svg" xmlns:xlink="http://www.w3.org/1999/xlink" x="0px" y="0px"
	 width="32px" height="32px" viewBox="0 0 32 32" enable-background="new 0 0 32 32" xml:space="preserve">
<g transform="translate(624 0)">
	<path fill="#590817" d="M-604,26c0,0.553-0.447,1-1,1h-6c-0.553,0-1-0.447-1-1s0.447-1,1-1h6C-604.447,25-604,25.447-604,26z
		 M-605,28h-6c-0.553,0-1,0.447-1,1s0.447,1,1,1c0,1.104,0.896,2,2,2h2c1.105,0,2-0.896,2-2c0.553,0,1-0.447,1-1S-604.447,28-605,28
		z M-608,2c4.412,0,8,3.59,8,8c0,2.852-1.498,5.426-4.006,6.885L-605,17.463V22h-6v-4.535l-0.994-0.58
		C-614.504,15.424-616,12.85-616,10C-616,5.59-612.41,2-608,2z M-608,0c-5.522,0-10,4.477-10,10c0,3.69,2.023,6.879,5,8.613V22
		c0,1.104,0.896,2,2,2h6c1.104,0,2-0.896,2-2v-3.387c2.979-1.732,5-4.923,5-8.613C-598,4.477-602.477,0-608,0L-608,0z"/>
</g>
<polygon fill="#590817" points="12.167,22.667 15.417,22.667 20.167,22.833 19.917,18.417 22.833,16 24.083,13.667 24.75,10.333 
	24.5,7.083 22.5,4.417 20.417,1.667 15.75,1.5 13,1.833 9.583,4.083 7.167,7.833 7.083,10.5 7.75,13.5 10.667,17.167 11.917,18 
	12.167,22.25 "/>
</svg>
