<?xml version="1.0" encoding="utf-8"?>
<!-- Generator: Adobe Illustrator 16.0.0, SVG Export Plug-In . SVG Version: 6.00 Build 0)  -->
<!DOCTYPE svg PUBLIC "-//W3C//DTD SVG 1.1//EN" "http://www.w3.org/Graphics/SVG/1.1/DTD/svg11.dtd">
<svg version="1.1" id="Calque_1" xmlns="http://www.w3.org/2000/svg" xmlns:xlink="http://www.w3.org/1999/xlink" x="0px" y="0px"
	 width="50px" height="50px" viewBox="0 0 50 50" enable-background="new 0 0 50 50" xml:space="preserve">
<g>
	<path fill-rule="evenodd" clip-rule="evenodd" fill="#58101B" d="M24.598,11.164c7.611,0.017,13.813,6.231,13.81,13.837
		c-0.004,7.633-6.267,13.867-13.888,13.826c-7.618-0.043-13.805-6.272-13.775-13.87C10.774,17.342,16.997,11.148,24.598,11.164z"/>
	<path fill-rule="evenodd" clip-rule="evenodd" fill="#58101B" d="M19.348,40.129c0.073,0.024,0.202,0.064,0.331,0.104
		c3.297,1.019,6.591,1.013,9.885-0.024c0.218-0.069,0.48-0.291,0.68-0.047c0.209,0.253-0.002,0.511-0.134,0.739
		c-1.592,2.764-3.183,5.527-4.786,8.285c-0.517,0.888-0.841,0.89-1.354,0.008c-1.615-2.775-3.218-5.56-4.822-8.342
		c-0.11-0.191-0.246-0.391-0.143-0.629C19.057,40.1,19.174,40.092,19.348,40.129z"/>
	<path fill-rule="evenodd" clip-rule="evenodd" fill="#58101B" d="M42.378,41.771c-0.003,0.413-0.211,0.606-0.595,0.563
		c-0.312-0.034-0.619-0.107-0.924-0.185c-2.833-0.709-5.667-1.42-8.499-2.131c-0.131-0.034-0.263-0.065-0.391-0.104
		c-0.173-0.054-0.38-0.094-0.419-0.296c-0.052-0.269,0.206-0.312,0.374-0.396c1.288-0.66,2.462-1.485,3.527-2.463
		c1.473-1.351,2.668-2.91,3.558-4.704c0.077-0.153,0.106-0.392,0.318-0.394c0.223,0,0.248,0.234,0.296,0.399
		c0.9,3.13,1.799,6.263,2.694,9.395C42.35,41.564,42.359,41.677,42.378,41.771z"/>
	<path fill-rule="evenodd" clip-rule="evenodd" fill="#58101B" d="M30.314,9.486c-0.064,0.358-0.292,0.18-0.448,0.128
		c-1.112-0.368-2.245-0.628-3.411-0.766c-2.334-0.276-4.613-0.042-6.851,0.662c-0.181,0.057-0.408,0.243-0.558,0.064
		c-0.149-0.178,0.069-0.367,0.165-0.533c1.566-2.724,3.131-5.449,4.709-8.166c0.578-0.995,0.872-0.991,1.461,0.022
		c1.591,2.736,3.167,5.479,4.748,8.222C30.196,9.235,30.25,9.359,30.314,9.486z"/>
	<path fill-rule="evenodd" clip-rule="evenodd" fill="#58101B" d="M17.27,10.373c-0.083,0.204-0.273,0.247-0.424,0.332
		c-3.036,1.696-5.321,4.1-6.838,7.232c-0.089,0.184-0.1,0.513-0.395,0.465c-0.21-0.034-0.224-0.312-0.279-0.502
		c-0.866-3.002-1.734-6.004-2.589-9.009C6.457,7.881,6.703,7.622,7.719,7.872c3.034,0.747,6.063,1.511,9.094,2.271
		C16.981,10.185,17.171,10.199,17.27,10.373z"/>
	<path fill-rule="evenodd" clip-rule="evenodd" fill="#58101B" d="M39.803,30.251c1.218-3.668,1.213-7.324-0.096-11.018
		c0.371,0.003,0.584,0.223,0.819,0.357c2.608,1.498,5.214,2.999,7.812,4.511c0.918,0.535,0.917,0.852-0.005,1.388
		c-2.79,1.622-5.588,3.233-8.382,4.845C39.902,30.308,39.853,30.279,39.803,30.251z"/>
	<path fill-rule="evenodd" clip-rule="evenodd" fill="#58101B" d="M9.973,31.923c3.595,5.319,3.274,4.674,7.825,7.672
		c-0.529,0.298-1.102,0.397-1.651,0.557c-2.547,0.734-5.094,1.468-7.646,2.189c-0.981,0.274-1.24,0.036-1.001-0.934
		c0.745-3.032,1.508-6.061,2.266-9.089C9.802,32.174,9.791,31.994,9.973,31.923z"/>
	<path fill-rule="evenodd" clip-rule="evenodd" fill="#58101B" d="M9.252,19.794c-1.116,3.464-1.045,6.932,0.116,10.562
		c-1.196-0.692-2.212-1.285-3.231-1.871c-1.769-1.022-3.543-2.033-5.305-3.068c-0.761-0.445-0.761-0.808,0.004-1.252
		c2.756-1.6,5.522-3.183,8.284-4.772C9.452,19.433,9.316,19.625,9.252,19.794z"/>
	<path fill-rule="evenodd" clip-rule="evenodd" fill="#58101B" d="M38.856,17.316c-1.754-3.157-4.234-5.546-7.485-7.097
		c0.074-0.306,0.317-0.281,0.487-0.33c2.782-0.804,5.566-1.605,8.354-2.392c0.979-0.275,1.24-0.033,1.004,0.932
		c-0.688,2.813-1.395,5.622-2.095,8.432C39.083,17.012,39.064,17.173,38.856,17.316z"/>
	<path fill-rule="evenodd" clip-rule="evenodd" fill="#58101B" d="M9.252,19.794c-0.044-0.133-0.087-0.267-0.131-0.401
		c0.078-0.074,0.191-0.184,0.263-0.065C9.488,19.497,9.363,19.656,9.252,19.794z"/>
	<path fill-rule="evenodd" clip-rule="evenodd" fill="#841830" d="M15.606,31.941c-4.012-4.868-3.208-12.307,1.753-16.218
		c5.385-4.245,12.279-2.626,15.514,1.113c-0.784-0.455-1.415-0.863-2.082-1.199c-4.536-2.285-9.925-1.316-13.449,2.325
		c-3.27,3.38-4.283,8.749-1.934,13.101c0.128,0.236,0.228,0.488,0.341,0.733C15.8,31.941,15.734,31.972,15.606,31.941z"/>
	<path fill-rule="evenodd" clip-rule="evenodd" fill="#58101B" d="M15.606,31.941c0.047-0.047,0.095-0.096,0.144-0.145
		c0.14,0.163,0.301,0.313,0.319,0.568C15.803,32.328,15.716,32.12,15.606,31.941z"/>
</g>
</svg>
