<?xml version="1.0" encoding="utf-8"?>
<!-- Generator: Adobe Illustrator 16.0.0, SVG Export Plug-In . SVG Version: 6.00 Build 0)  -->
<!DOCTYPE svg PUBLIC "-//W3C//DTD SVG 1.1//EN" "http://www.w3.org/Graphics/SVG/1.1/DTD/svg11.dtd">
<svg version="1.1" id="Calque_1" xmlns="http://www.w3.org/2000/svg" xmlns:xlink="http://www.w3.org/1999/xlink" x="0px" y="0px"
	 width="31.973px" height="32.007px" viewBox="0 0 31.973 32.007" enable-background="new 0 0 31.973 32.007" xml:space="preserve">
<path fill="#58101B" d="M15.987,9.991c3.314,0,6,2.688,6,6c0,3.315-2.686,6-6,6c-3.312,0-6-2.687-6-6
	C9.987,12.679,12.675,9.991,15.987,9.991z"/>
<path fill="#58101B" d="M15.987,23.992c-4.048,0-7.385-3.008-7.917-6.912L2.555,7.517L2.549,7.503L1.932,8.394
	c-0.152,0.279-0.3,0.562-0.436,0.851l-0.295,0.69c-0.099,0.238-0.195,0.479-0.282,0.725c-0.099,0.273-0.184,0.549-0.265,0.826
	l-0.178,0.637c-0.074,0.297-0.137,0.594-0.193,0.893l-0.108,0.631c-0.044,0.293-0.078,0.584-0.104,0.875l-0.052,0.697
	c-0.013,0.266-0.018,0.531-0.018,0.797s0.004,0.532,0.018,0.797l0.052,0.696c0.027,0.291,0.062,0.584,0.104,0.875l0.108,0.632
	c0.058,0.299,0.119,0.596,0.193,0.894l0.178,0.637c0.082,0.274,0.166,0.553,0.265,0.826c0.087,0.244,0.185,0.483,0.282,0.725
	c0.096,0.23,0.188,0.461,0.295,0.689c0.136,0.289,0.283,0.569,0.437,0.852l0.199,0.391l0.092,0.143
	c0.176,0.302,0.37,0.588,0.566,0.875l0.313,0.468c0.189,0.258,0.396,0.504,0.604,0.752l0.414,0.496
	c0.18,0.196,0.373,0.385,0.562,0.573c0.19,0.191,0.377,0.388,0.575,0.564l0.496,0.416c0.248,0.205,0.494,0.412,0.752,0.602
	l0.463,0.316c0.288,0.197,0.577,0.391,0.875,0.566l0.142,0.092l0.391,0.199c0.28,0.152,0.562,0.303,0.851,0.438l0.083,0.043
	l0.405,0.166c1.082,0.461,2.212,0.787,3.364,1.002l4.564-7.916C17.11,23.931,16.556,23.992,15.987,23.992z"/>
<path fill="#58101B" d="M31.933,14.901l-0.021-0.264c-0.113-1.336-0.662-3.27-1.118-4.568h-9.443
	c1.615,1.463,2.636,3.57,2.636,5.922c0,2.538-1.185,4.795-3.024,6.26l-5.625,9.756c1.978,0,4.641-0.357,6.557-1.123l0.065-0.021
	l0.102-0.043c0.653-0.271,1.299-0.568,1.928-0.932c0.563-0.324,1.091-0.688,1.6-1.068l0.029-0.023
	c0.489-0.371,0.948-0.766,1.387-1.182l0.067-0.059l0.222-0.225c0.968-0.97,1.799-2.039,2.477-3.193l0.077-0.113l0.139-0.281
	c0.219-0.396,0.421-0.801,0.604-1.213l0.236-0.555c0.155-0.391,0.292-0.787,0.417-1.188l0.165-0.517
	c0.152-0.558,0.277-1.119,0.37-1.688l0.039-0.324c0.069-0.487,0.118-0.979,0.144-1.475l0.009-0.396
	C31.978,15.894,31.968,15.397,31.933,14.901z"/>
<path fill="#58101B" d="M29.838,7.991c-0.335-0.58-0.71-1.121-1.104-1.643l-0.129-0.16c-0.354-0.457-0.729-0.891-1.125-1.299
	l-0.268-0.275c-0.436-0.428-0.886-0.834-1.359-1.205l-0.104-0.088c-0.527-0.406-1.079-0.771-1.648-1.105L23.987,2.14l-0.433-0.225
	c-0.25-0.135-0.499-0.27-0.756-0.391c-0.247-0.115-0.496-0.217-0.745-0.32l-0.627-0.25c-0.303-0.109-0.609-0.201-0.916-0.295
	L20,0.511c-0.334-0.086-0.671-0.154-1.007-0.219l-0.477-0.094c-0.328-0.053-0.656-0.086-0.984-0.117l-0.539-0.055
	c-0.282-0.018-0.563-0.016-0.848-0.02l-0.693-0.004l-0.54,0.039c-1.194,0.08-2.389,0.293-3.562,0.648l-0.243,0.066
	c-0.297,0.096-0.59,0.213-0.884,0.328L9.66,1.306C9.418,1.409,9.179,1.53,8.939,1.649C8.707,1.763,8.474,1.878,8.246,2.005
	L7.986,2.138L7.602,2.386C7.375,2.526,7.15,2.669,6.929,2.821C6.713,2.972,6.5,3.126,6.292,3.284l-0.55,0.439
	c-0.228,0.19-0.448,0.383-0.663,0.583L4.671,4.704c-0.237,0.238-0.469,0.48-0.688,0.73l-0.148,0.18l4.551,7.895
	c1.045-3.201,4.052-5.518,7.603-5.518H29.838z"/>
</svg>
