<?xml version="1.0" encoding="utf-8"?>
<!-- Generator: Adobe Illustrator 16.0.0, SVG Export Plug-In . SVG Version: 6.00 Build 0)  -->
<!DOCTYPE svg PUBLIC "-//W3C//DTD SVG 1.1//EN" "http://www.w3.org/Graphics/SVG/1.1/DTD/svg11.dtd">
<svg version="1.1"
	 id="Calque_1" xmlns:cc="http://creativecommons.org/ns#" xmlns:rdf="http://www.w3.org/1999/02/22-rdf-syntax-ns#" xmlns:dc="http://purl.org/dc/elements/1.1/"
	 xmlns="http://www.w3.org/2000/svg" xmlns:xlink="http://www.w3.org/1999/xlink" x="0px" y="0px" width="24px" height="24px"
	 viewBox="0 0 24 24" enable-background="new 0 0 24 24" xml:space="preserve">
<g transform="translate(0 -1028.4)">
	<path fill="#590817" d="M12,1028.4c-4.418,0-8,3.582-8,8c0,1.421,0.382,2.75,1.031,3.906c0.108,0.192,0.221,0.381,0.344,0.562
		L12,1052.4l6.625-11.531c0.102-0.151,0.189-0.311,0.281-0.469l0.062-0.094c0.649-1.156,1.031-2.485,1.031-3.906
		C20,1031.982,16.418,1028.4,12,1028.4z M12,1032.4c2.209,0,4,1.791,4,4s-1.791,4-4,4s-4-1.791-4-4S9.791,1032.4,12,1032.4z"/>
	<path fill="#84182F" d="M12,1031.4c-2.761,0-5,2.239-5,5c0,2.761,2.239,5,5,5c2.761,0,5-2.239,5-5
		C17,1033.639,14.761,1031.4,12,1031.4z M12,1033.4c1.657,0,3,1.343,3,3s-1.343,3-3,3s-3-1.343-3-3S10.343,1033.4,12,1033.4z"/>
</g>
</svg>
