<?xml version="1.0" encoding="utf-8"?>
<!-- Generator: Adobe Illustrator 16.0.0, SVG Export Plug-In . SVG Version: 6.00 Build 0)  -->
<!DOCTYPE svg PUBLIC "-//W3C//DTD SVG 1.1//EN" "http://www.w3.org/Graphics/SVG/1.1/DTD/svg11.dtd">
<svg version="1.1" id="Calque_1" xmlns="http://www.w3.org/2000/svg" xmlns:xlink="http://www.w3.org/1999/xlink" x="0px" y="0px"
	 width="70px" height="70px" viewBox="0 0 70 70" enable-background="new 0 0 70 70" xml:space="preserve">
<g>
	<path fill-rule="evenodd" clip-rule="evenodd" fill="#590817" d="M64.98,7.964c0-0.614-0.287-1.228-0.439-1.84
		c-3.651,1.986-7.306,3.971-11.005,5.98c0.359,1.409,0.691,2.717,1.057,4.155c1.965-0.944,3.795-1.822,5.633-2.705
		c0.136,0.334,0.188,0.405,0.191,0.475c0.03,13.413,0.08,26.823,0.033,40.236c0,0.627-0.681,1.498-1.28,1.838
		c-2.2,1.235-4.486,2.325-6.767,3.411c-1.78,0.846-3.688-0.056-4.279-1.968c-0.227-0.733-0.373-1.487-0.603-2.218
		c-2.295-7.297-8.738-9.854-13.78-8.37c-1.93,0.566-3.421-0.566-4.498-2.076c-0.75-1.053-1.32-2.241-1.921-3.395
		c-0.938-1.799-2.292-3.026-4.34-3.425c-0.508-0.1-1.092-0.246-1.461-0.572c-3.05-2.698-6.684-3.917-10.778-4.237
		c0-6.729,0-13.352,0-20.177c0.945,0.351,1.729,0.608,2.488,0.927c2.257,0.953,4.476,2,6.762,2.874
		c2.365,0.904,5.306,0.112,5.873-1.537c0.531-1.545,0.889-3.15,1.378-4.928c-1.105,0.532-1.977,1.018-2.897,1.378
		c-0.957,0.375-2.171,1.15-2.907,0.85c-5.006-2.04-9.916-4.318-14.855-6.518c-0.154,0.609-0.441,1.219-0.441,1.83
		c-0.025,16.869-0.02,33.737-0.02,50.607c0,2.148,0,4.296,0,6.438c5.167,0,10.172,0,15.179,0c0.46,0,0.92,0,1.379,0
		c9.506,0,19.012,0,28.518,0c0.155,0,0.308,0,0.462,0c4.445,0,8.893,0,13.338,0c0-2.3,0-4.6,0-6.899
		C65,41.39,65.006,24.677,64.98,7.964z"/>
	<path fill-rule="evenodd" clip-rule="evenodd" fill="#590817" d="M38.855,41.877c0.959,0,1.694,0,2.294,0
		c0.614-2.198,1.056-4.299,1.794-6.289c0.744-2,1.756-3.905,2.689-5.832c1.436-2.96,3.03-5.851,4.329-8.869
		c1.75-4.073,0.927-7.846-2.076-11.032c-3.007-3.188-6.783-4.077-10.94-2.853c-6.765,1.996-9.32,8.784-6.044,15.784
		C33.833,29.053,37.965,34.806,38.855,41.877z M40.125,12C42.817,12,45,14.042,45,16.562s-2.183,4.562-4.875,4.562
		s-4.875-2.042-4.875-4.562S37.433,12,40.125,12z"/>
</g>
</svg>
