<?xml version="1.0" encoding="utf-8"?>
<!-- Generator: Adobe Illustrator 16.0.0, SVG Export Plug-In . SVG Version: 6.00 Build 0)  -->
<!DOCTYPE svg PUBLIC "-//W3C//DTD SVG 1.1//EN" "http://www.w3.org/Graphics/SVG/1.1/DTD/svg11.dtd">
<svg version="1.1" id="Livello_1" xmlns="http://www.w3.org/2000/svg" xmlns:xlink="http://www.w3.org/1999/xlink" x="0px" y="0px"
	 width="141.732px" height="141.732px" viewBox="0 0 141.732 141.732" enable-background="new 0 0 141.732 141.732"
	 xml:space="preserve">
<g id="Livello_61">
	<path fill="#590817" d="M89.546,13.171C83.01,11.112,76.057,10,68.844,10C30.822,10,0,40.822,0,78.844
		c0,9.01,1.734,17.612,4.879,25.5c2.566-2.708,6.138-4.437,10.104-4.564c3.338-7.686,10.966-12.752,19.409-12.752
		c1.753,0,3.487,0.214,5.171,0.636c0.47-2.009,1.115-3.938,1.91-5.779c-0.044-1.006-0.065-2.022-0.065-3.044
		C41.406,48.037,61.642,21.958,89.546,13.171 M140.635,95.496c0-16.583-13.452-30.08-29.987-30.08
		c-6.509,0-12.698,2.06-17.901,5.946l-1.162,0.87l-1.163-0.87c-5.204-3.888-11.396-5.946-17.899-5.946
		c-14.698,0-27.134,10.537-29.57,25.06l-0.388,2.311l-2.195-0.812c-1.909-0.706-3.919-1.064-5.974-1.064
		c-7.276,0-13.817,4.616-16.273,11.488l-0.492,1.374l-1.456-0.093c-0.28-0.021-0.508-0.025-0.71-0.025
		c-5.953,0-10.795,4.919-10.795,10.966c0,5.911,4.733,10.823,10.547,10.96l0.309,0.007h94.428l0.843-0.004
		C127.247,125.491,140.635,111.999,140.635,95.496"/>
</g>
<g id="Livello_1_1_">
</g>
</svg>
