<?xml version="1.0" encoding="utf-8"?>
<!-- Generator: Adobe Illustrator 16.0.0, SVG Export Plug-In . SVG Version: 6.00 Build 0)  -->
<!DOCTYPE svg PUBLIC "-//W3C//DTD SVG 1.1//EN" "http://www.w3.org/Graphics/SVG/1.1/DTD/svg11.dtd">
<svg version="1.1" id="Calque_1" xmlns="http://www.w3.org/2000/svg" xmlns:xlink="http://www.w3.org/1999/xlink" x="0px" y="0px"
	 width="50px" height="50px" viewBox="0 0 50 50" enable-background="new 0 0 50 50" xml:space="preserve">
<g>
	<path fill-rule="evenodd" clip-rule="evenodd" fill="#58121D" d="M48.144,42.342c-0.103,0-0.207-0.002-0.312,0
		c-0.053,3.161-2.332,5.44-5.495,5.5c0,0.103,0,0.204,0,0.307c1.694,0,3.391-0.037,5.081,0.021c0.632,0.024,0.77-0.114,0.745-0.746
		C48.106,45.732,48.144,44.037,48.144,42.342z"/>
	<path fill-rule="evenodd" clip-rule="evenodd" fill="#58121D" d="M47.832,42.342c-0.272-0.469-0.463-1.018-0.829-1.392
		c-2.794-2.839-5.608-5.66-8.452-8.45c-0.827-0.813-1.885-1.04-3.017-0.71c-1.006,0.289-1.402-0.531-1.907-1.07
		c-0.58-0.619,0.197-0.946,0.442-1.35c3.667-5.989,4.119-12.109,0.694-18.343C31.77,5.574,26.915,2.898,20.923,2.01
		C16.632,1.893,12.654,2.891,9.193,5.5c-5.113,3.856-7.316,9.109-7.188,15.428c0.105,0.533,0.213,1.064,0.313,1.598
		c2.364,12.535,16.087,18.476,26.905,11.661c0.44-0.277,0.781-1.147,1.495-0.553c0.624,0.52,1.361,1.015,1.045,2.091
		c-0.41,1.383,0.27,2.449,1.204,3.385c1.873,1.885,3.738,3.778,5.641,5.633c1.158,1.129,2.138,2.489,3.729,3.1
		c0.87-0.769,2.104-0.703,3.043-1.432C46.763,45.339,47.093,43.74,47.832,42.342z M19.353,33.825
		c-8.017-0.28-14.217-6.685-14.053-14.515c0.167-7.881,6.719-14.183,14.553-13.996c7.811,0.186,14.202,6.78,13.97,14.412
		C33.577,27.704,27.021,34.093,19.353,33.825z"/>
	<path fill-rule="evenodd" clip-rule="evenodd" fill="#58121D" d="M10.305,15.738c-2.124,3.38-1.462,8.162,1.557,11.244
		c3.169,3.234,8.013,3.85,12.21,1.357C15.504,27.497,13.073,25.231,10.305,15.738z"/>
</g>
</svg>
