<?xml version="1.0" encoding="utf-8"?>
<!-- Generator: Adobe Illustrator 16.0.0, SVG Export Plug-In . SVG Version: 6.00 Build 0)  -->
<!DOCTYPE svg PUBLIC "-//W3C//DTD SVG 1.1//EN" "http://www.w3.org/Graphics/SVG/1.1/DTD/svg11.dtd">
<svg version="1.1" id="Calque_1" xmlns="http://www.w3.org/2000/svg" xmlns:xlink="http://www.w3.org/1999/xlink" x="0px" y="0px"
	 width="70px" height="70px" viewBox="0 0 70 70" enable-background="new 0 0 70 70" xml:space="preserve">
<path fill-rule="evenodd" clip-rule="evenodd" fill="#590817" d="M49.692,30.273c1.519-0.086,2.902-0.827,2.499-2.469
	c-0.228-0.928-1.487-1.98-2.483-2.256c-1.399-0.384-2.982-0.095-4.605-0.095c0-1.874,0-3.373,0-5.308
	c1.719,0,3.391,0.297,4.873-0.109c0.925-0.254,1.559-1.568,2.327-2.406c-0.797-0.718-1.491-1.84-2.407-2.064
	c-1.436-0.349-3.02-0.092-4.726-0.092c-0.172-1.539-0.268-2.635-0.421-3.721c-0.741-5.223-4.823-8.725-10.035-8.622
	c-5.767,0.114-9.687,4.378-9.771,10.858c-0.089,6.817,0.06,13.641-0.097,20.457c-0.029,1.245-0.734,2.755-1.622,3.655
	c-4.5,4.568-6.158,10.001-4.873,16.161c1.512,7.243,7.396,12.307,14.801,13.229c6.862,0.857,13.711-2.912,17.032-9.374
	c3.173-6.176,2.266-14.194-2.939-19.122c-2.865-2.715-2.247-5.444-2.062-8.703C46.824,30.292,48.263,30.356,49.692,30.273z
	 M38.555,15.733c-1.477,0.16-2.982,0.324-4.821,0.524c0,3.219,0,6.428,0,9.635c-0.003,4.261,0.157,8.528-0.102,12.771
	c-0.077,1.285-1.005,2.945-2.066,3.671c-3.493,2.383-6.897,4.688-8.087,9.106c-0.112,0.415-0.995,0.62-1.519,0.925
	c-0.286-0.646-0.842-1.301-0.81-1.931c0.172-3.471,1.443-6.622,4.293-8.604c2.596-1.808,3.224-3.981,3.154-6.927
	c-0.165-6.896-0.095-13.797-0.059-20.695c0.019-3.441,1.671-5.537,4.45-5.879C36.925,7.843,39.271,10.899,38.555,15.733z"/>
</svg>
